<svg width="240" height="240" viewBox="0 0 240 240" fill="none" xmlns="http://www.w3.org/2000/svg">
<path d="M73.7527 116.785C73.8877 115.294 73.5219 114.069 72.6554 113.11C71.7889 112.151 70.507 111.672 68.8095 111.672C67.7016 111.672 66.6718 111.888 65.7201 112.321C64.7754 112.748 63.9871 113.334 63.355 114.079C62.7229 114.818 62.3252 115.663 62.1618 116.615C62.0695 117.169 62.0766 117.68 62.1831 118.149C62.2968 118.611 62.5098 119.037 62.8223 119.427C63.1419 119.811 63.5645 120.159 64.0901 120.471C64.6227 120.784 65.2584 121.061 65.997 121.302L68.3408 122.069C69.2357 122.361 69.9992 122.687 70.6313 123.049C71.2705 123.412 71.7783 123.817 72.1547 124.264C72.5311 124.711 72.7833 125.212 72.9111 125.766C73.046 126.32 73.0567 126.934 72.9431 127.609C72.7513 128.781 72.3003 129.811 71.5901 130.699C70.8798 131.579 69.9637 132.265 68.8415 132.755C67.7264 133.245 66.4516 133.49 65.0169 133.49C63.6959 133.49 62.5737 133.259 61.6504 132.797C60.7271 132.329 60.0418 131.686 59.5943 130.869C59.154 130.045 58.9871 129.101 59.0936 128.035H59.7754C59.6902 128.973 59.8465 129.8 60.2442 130.518C60.649 131.235 61.2669 131.796 62.0979 132.201C62.9289 132.606 63.9445 132.808 65.1448 132.808C66.4019 132.808 67.5347 132.588 68.5432 132.147C69.5517 131.707 70.3791 131.096 71.0254 130.315C71.6789 129.534 72.0908 128.632 72.2612 127.609C72.3891 126.828 72.3287 126.135 72.0801 125.532C71.8387 124.928 71.3912 124.395 70.7378 123.934C70.0844 123.472 69.2002 123.064 68.0851 122.709L65.6987 121.942C64.0723 121.416 62.9111 120.713 62.2151 119.832C61.5191 118.944 61.274 117.872 61.48 116.615C61.6647 115.514 62.1014 114.541 62.7904 113.696C63.4864 112.851 64.3635 112.19 65.4218 111.714C66.48 111.231 67.6377 110.99 68.8948 110.99C70.1448 110.99 71.203 111.238 72.0695 111.736C72.936 112.233 73.5752 112.918 73.9871 113.792C74.399 114.665 74.5482 115.663 74.4345 116.785H73.7527Z" fill="black"/>
<path d="M83.0025 133.49C81.7099 133.49 80.6091 133.117 79.7 132.371C78.798 131.625 78.1517 130.606 77.7611 129.314C77.3775 128.021 77.3207 126.558 77.5906 124.924C77.8605 123.334 78.3932 121.906 79.1886 120.642C79.9912 119.37 80.9571 118.369 82.0864 117.638C83.2227 116.899 84.423 116.53 85.6872 116.53C86.994 116.53 88.0984 116.906 89.0004 117.659C89.9095 118.412 90.5558 119.434 90.9393 120.727C91.33 122.02 91.3974 123.476 91.1417 125.095C90.8719 126.686 90.3356 128.117 89.5331 129.388C88.7305 130.652 87.7611 131.654 86.6247 132.393C85.4883 133.124 84.281 133.49 83.0025 133.49ZM83.0025 132.808C84.1815 132.808 85.293 132.467 86.3371 131.785C87.3811 131.096 88.2689 130.159 89.0004 128.973C89.7319 127.78 90.2185 126.43 90.4599 124.924C90.7014 123.461 90.6552 122.147 90.3214 120.983C89.9876 119.818 89.423 118.898 88.6275 118.223C87.8321 117.549 86.8662 117.211 85.7298 117.211C84.565 117.211 83.4606 117.559 82.4166 118.255C81.3726 118.944 80.4812 119.885 79.7426 121.079C79.004 122.265 78.5139 123.603 78.2724 125.095C78.0167 126.558 78.0558 127.872 78.3896 129.037C78.7305 130.201 79.2987 131.121 80.0942 131.796C80.8967 132.471 81.8662 132.808 83.0025 132.808Z" fill="black"/>
<path d="M99.8642 133.49C98.5716 133.49 97.5134 133.12 96.6895 132.382C95.8657 131.636 95.301 130.624 94.9956 129.346C94.6973 128.067 94.6796 126.622 94.9424 125.01C95.2122 123.405 95.7129 121.963 96.4445 120.684C97.176 119.406 98.0745 118.394 99.1398 117.648C100.212 116.902 101.384 116.53 102.655 116.53C103.529 116.53 104.3 116.711 104.967 117.073C105.642 117.428 106.192 117.939 106.618 118.607C107.052 119.268 107.336 120.052 107.471 120.961H107.556L109.154 111.331H109.836L106.214 133.149H105.532L106.214 129.058H106.128C105.681 129.96 105.134 130.745 104.488 131.412C103.849 132.073 103.135 132.584 102.346 132.946C101.565 133.309 100.738 133.49 99.8642 133.49ZM99.8642 132.808C101.022 132.808 102.087 132.467 103.06 131.785C104.033 131.096 104.85 130.166 105.511 128.994C106.178 127.815 106.633 126.487 106.874 125.01C107.123 123.532 107.123 122.208 106.874 121.036C106.633 119.857 106.157 118.927 105.447 118.245C104.736 117.556 103.806 117.211 102.655 117.211C101.505 117.211 100.443 117.556 99.4701 118.245C98.497 118.927 97.6732 119.857 96.9985 121.036C96.3308 122.208 95.8727 123.532 95.6242 125.01C95.3827 126.487 95.3827 127.815 95.6242 128.994C95.8727 130.166 96.3522 131.096 97.0624 131.785C97.7726 132.467 98.7066 132.808 99.8642 132.808Z" fill="black"/>
<path d="M112.233 139.285C111.956 139.285 111.668 139.246 111.37 139.168C111.079 139.097 110.784 138.994 110.486 138.859L110.827 138.263C111.452 138.568 112.059 138.671 112.648 138.571C113.245 138.479 113.806 138.199 114.332 137.73C114.857 137.268 115.329 136.636 115.748 135.834L117.027 133.405L113.873 116.785H114.555L117.517 132.297H117.602L125.72 116.785H126.487L116.366 136.132C116.004 136.821 115.599 137.4 115.152 137.868C114.712 138.337 114.243 138.689 113.746 138.923C113.248 139.165 112.744 139.285 112.233 139.285Z" fill="black"/>
<path d="M128.695 133.149L132.317 111.331H132.999L131.422 120.961H131.508C131.934 120.052 132.47 119.268 133.116 118.607C133.762 117.939 134.483 117.428 135.279 117.073C136.074 116.711 136.905 116.53 137.772 116.53C139.05 116.53 140.101 116.902 140.925 117.648C141.749 118.394 142.314 119.406 142.619 120.684C142.924 121.963 142.942 123.405 142.672 125.01C142.402 126.615 141.905 128.057 141.181 129.335C140.456 130.613 139.561 131.625 138.496 132.371C137.431 133.117 136.252 133.49 134.959 133.49C134.079 133.49 133.301 133.312 132.626 132.957C131.959 132.595 131.412 132.084 130.985 131.423C130.566 130.755 130.286 129.967 130.144 129.058H130.059L129.377 133.149H128.695ZM130.74 125.01C130.499 126.487 130.495 127.815 130.73 128.994C130.971 130.166 131.444 131.096 132.147 131.785C132.857 132.467 133.794 132.808 134.959 132.808C136.11 132.808 137.172 132.467 138.145 131.785C139.125 131.096 139.949 130.166 140.616 128.994C141.291 127.815 141.749 126.487 141.99 125.01C142.232 123.532 142.228 122.208 141.98 121.036C141.738 119.857 141.262 118.927 140.552 118.245C139.849 117.556 138.922 117.211 137.772 117.211C136.621 117.211 135.556 117.556 134.576 118.245C133.603 118.927 132.779 119.857 132.104 121.036C131.436 122.208 130.982 123.532 130.74 125.01Z" fill="black"/>
<path d="M170.102 122.155L168.27 133.149H167.588L170.315 116.785H170.997L170.571 119.385H170.656C171.167 118.532 171.906 117.851 172.872 117.339C173.845 116.828 174.896 116.572 176.025 116.572C177.119 116.572 178.046 116.81 178.806 117.286C179.566 117.762 180.113 118.419 180.447 119.257C180.78 120.095 180.855 121.061 180.67 122.155L178.838 133.149H178.156L179.989 122.155C180.223 120.706 179.974 119.527 179.243 118.618C178.518 117.709 177.432 117.254 175.983 117.254C175.017 117.254 174.115 117.464 173.277 117.883C172.446 118.302 171.746 118.88 171.178 119.619C170.617 120.358 170.258 121.203 170.102 122.155Z" fill="black"/>
<path d="M148.621 108.551C149.422 103.496 154.331 100.074 159.586 100.906C164.841 101.738 168.452 106.51 167.651 111.565L165.205 127.008C164.405 132.062 159.496 135.485 154.241 134.653C148.986 133.82 145.375 129.048 146.175 123.994L148.621 108.551Z" fill="black"/>
<path d="M149.639 108.858C150.352 104.357 154.724 101.309 159.405 102.05C164.085 102.791 167.301 107.041 166.588 111.543L166.543 111.829C165.83 116.33 161.458 119.379 156.777 118.637C152.097 117.896 148.881 113.646 149.594 109.144L149.639 108.858Z" fill="#FFFEFE"/>
</svg>
